<?xml version="1.0" encoding="UTF-8" standalone="no"?>
<!DOCTYPE svg PUBLIC "-//W3C//DTD SVG 1.1//EN"
 "http://www.w3.org/Graphics/SVG/1.1/DTD/svg11.dtd">
<!-- Generated by graphviz version 2.48.0 (20210717.1556)
 -->
<!-- Title: G Pages: 1 -->
<svg width="1371pt" height="675pt"
 viewBox="0.00 0.00 1371.20 675.20" xmlns="http://www.w3.org/2000/svg" xmlns:xlink="http://www.w3.org/1999/xlink">
<g id="graph0" class="graph" transform="scale(1 1) rotate(0) translate(21.6 653.6)">
<title>G</title>
<polygon fill="#111111" stroke="transparent" points="-21.6,21.6 -21.6,-653.6 1349.6,-653.6 1349.6,21.6 -21.6,21.6"/>
<!-- ../knexfile.js -->
<g id="node1" class="node">
<title>../knexfile.js</title>
<path fill="none" stroke="#cfffac" d="M277.17,-278C277.17,-278 220.83,-278 220.83,-278 217.67,-278 214.5,-274.83 214.5,-271.67 214.5,-271.67 214.5,-265.33 214.5,-265.33 214.5,-262.17 217.67,-259 220.83,-259 220.83,-259 277.17,-259 277.17,-259 280.33,-259 283.5,-262.17 283.5,-265.33 283.5,-265.33 283.5,-271.67 283.5,-271.67 283.5,-274.83 280.33,-278 277.17,-278"/>
<text text-anchor="middle" x="249" y="-266" font-family="Arial" font-size="10.00" fill="#cfffac">../knexfile.js</text>
</g>
<!-- ../lib/build&#45;graphql&#45;type&#45;fields.js -->
<g id="node2" class="node">
<title>../lib/build&#45;graphql&#45;type&#45;fields.js</title>
<path fill="none" stroke="#cfffac" d="M803.17,-149C803.17,-149 661.83,-149 661.83,-149 658.67,-149 655.5,-145.83 655.5,-142.67 655.5,-142.67 655.5,-136.33 655.5,-136.33 655.5,-133.17 658.67,-130 661.83,-130 661.83,-130 803.17,-130 803.17,-130 806.33,-130 809.5,-133.17 809.5,-136.33 809.5,-136.33 809.5,-142.67 809.5,-142.67 809.5,-145.83 806.33,-149 803.17,-149"/>
<text text-anchor="middle" x="732.5" y="-137" font-family="Arial" font-size="10.00" fill="#cfffac">../lib/build&#45;graphql&#45;type&#45;fields.js</text>
</g>
<!-- ../lib/db/mysql/database.js -->
<g id="node3" class="node">
<title>../lib/db/mysql/database.js</title>
<path fill="none" stroke="#cfffac" d="M792.17,-576C792.17,-576 672.83,-576 672.83,-576 669.67,-576 666.5,-572.83 666.5,-569.67 666.5,-569.67 666.5,-563.33 666.5,-563.33 666.5,-560.17 669.67,-557 672.83,-557 672.83,-557 792.17,-557 792.17,-557 795.33,-557 798.5,-560.17 798.5,-563.33 798.5,-563.33 798.5,-569.67 798.5,-569.67 798.5,-572.83 795.33,-576 792.17,-576"/>
<text text-anchor="middle" x="732.5" y="-564" font-family="Arial" font-size="10.00" fill="#cfffac">../lib/db/mysql/database.js</text>
</g>
<!-- ../lib/db/mysql/mysql&#45;model&#45;builder.js -->
<g id="node4" class="node">
<title>../lib/db/mysql/mysql&#45;model&#45;builder.js</title>
<path fill="none" stroke="#c6c5fe" d="M816.17,-539C816.17,-539 648.83,-539 648.83,-539 645.67,-539 642.5,-535.83 642.5,-532.67 642.5,-532.67 642.5,-526.33 642.5,-526.33 642.5,-523.17 645.67,-520 648.83,-520 648.83,-520 816.17,-520 816.17,-520 819.33,-520 822.5,-523.17 822.5,-526.33 822.5,-526.33 822.5,-532.67 822.5,-532.67 822.5,-535.83 819.33,-539 816.17,-539"/>
<text text-anchor="middle" x="732.5" y="-527" font-family="Arial" font-size="10.00" fill="#c6c5fe">../lib/db/mysql/mysql&#45;model&#45;builder.js</text>
</g>
<!-- ../lib/node&#45;edge&#45;inspector.js -->
<g id="node5" class="node">
<title>../lib/node&#45;edge&#45;inspector.js</title>
<path fill="none" stroke="#c6c5fe" d="M999.67,-446C999.67,-446 873.33,-446 873.33,-446 870.17,-446 867,-442.83 867,-439.67 867,-439.67 867,-433.33 867,-433.33 867,-430.17 870.17,-427 873.33,-427 873.33,-427 999.67,-427 999.67,-427 1002.83,-427 1006,-430.17 1006,-433.33 1006,-433.33 1006,-439.67 1006,-439.67 1006,-442.83 1002.83,-446 999.67,-446"/>
<text text-anchor="middle" x="936.5" y="-434" font-family="Arial" font-size="10.00" fill="#c6c5fe">../lib/node&#45;edge&#45;inspector.js</text>
</g>
<!-- ../lib/db/mysql/mysql&#45;model&#45;builder.js&#45;&gt;../lib/node&#45;edge&#45;inspector.js -->
<g id="edge1" class="edge">
<title>../lib/db/mysql/mysql&#45;model&#45;builder.js&#45;&gt;../lib/node&#45;edge&#45;inspector.js</title>
<path fill="none" stroke="#757575" d="M805.39,-519.97C814.19,-517.72 822.92,-514.94 831,-511.5 864.8,-497.11 898.31,-470.24 917.95,-452.88"/>
<polygon fill="#757575" stroke="#757575" points="920.4,-455.38 925.47,-446.08 915.71,-450.19 920.4,-455.38"/>
</g>
<!-- ../lib/node&#45;relations.js -->
<g id="node21" class="node">
<title>../lib/node&#45;relations.js</title>
<path fill="none" stroke="#cfffac" d="M1161.17,-446C1161.17,-446 1062.83,-446 1062.83,-446 1059.67,-446 1056.5,-442.83 1056.5,-439.67 1056.5,-439.67 1056.5,-433.33 1056.5,-433.33 1056.5,-430.17 1059.67,-427 1062.83,-427 1062.83,-427 1161.17,-427 1161.17,-427 1164.33,-427 1167.5,-430.17 1167.5,-433.33 1167.5,-433.33 1167.5,-439.67 1167.5,-439.67 1167.5,-442.83 1164.33,-446 1161.17,-446"/>
<text text-anchor="middle" x="1112" y="-434" font-family="Arial" font-size="10.00" fill="#cfffac">../lib/node&#45;relations.js</text>
</g>
<!-- ../lib/node&#45;edge&#45;inspector.js&#45;&gt;../lib/node&#45;relations.js -->
<g id="edge21" class="edge">
<title>../lib/node&#45;edge&#45;inspector.js&#45;&gt;../lib/node&#45;relations.js</title>
<path fill="none" stroke="#757575" d="M1006.07,-436.5C1019.23,-436.5 1032.96,-436.5 1046,-436.5"/>
<polygon fill="#757575" stroke="#757575" points="1046.28,-440 1056.28,-436.5 1046.28,-433 1046.28,-440"/>
</g>
<!-- ../lib/db/mysql/mysql&#45;schema&#45;adapters.js -->
<g id="node6" class="node">
<title>../lib/db/mysql/mysql&#45;schema&#45;adapters.js</title>
<path fill="none" stroke="#c6c5fe" d="M824.67,-613C824.67,-613 640.33,-613 640.33,-613 637.17,-613 634,-609.83 634,-606.67 634,-606.67 634,-600.33 634,-600.33 634,-597.17 637.17,-594 640.33,-594 640.33,-594 824.67,-594 824.67,-594 827.83,-594 831,-597.17 831,-600.33 831,-600.33 831,-606.67 831,-606.67 831,-609.83 827.83,-613 824.67,-613"/>
<text text-anchor="middle" x="732.5" y="-601" font-family="Arial" font-size="10.00" fill="#c6c5fe">../lib/db/mysql/mysql&#45;schema&#45;adapters.js</text>
</g>
<!-- ../lib/graph&#45;node&#45;name.js -->
<g id="node7" class="node">
<title>../lib/graph&#45;node&#45;name.js</title>
<path fill="none" stroke="#cfffac" d="M1169.17,-594C1169.17,-594 1054.83,-594 1054.83,-594 1051.67,-594 1048.5,-590.83 1048.5,-587.67 1048.5,-587.67 1048.5,-581.33 1048.5,-581.33 1048.5,-578.17 1051.67,-575 1054.83,-575 1054.83,-575 1169.17,-575 1169.17,-575 1172.33,-575 1175.5,-578.17 1175.5,-581.33 1175.5,-581.33 1175.5,-587.67 1175.5,-587.67 1175.5,-590.83 1172.33,-594 1169.17,-594"/>
<text text-anchor="middle" x="1112" y="-582" font-family="Arial" font-size="10.00" fill="#cfffac">../lib/graph&#45;node&#45;name.js</text>
</g>
<!-- ../lib/db/mysql/mysql&#45;schema&#45;adapters.js&#45;&gt;../lib/graph&#45;node&#45;name.js -->
<g id="edge2" class="edge">
<title>../lib/db/mysql/mysql&#45;schema&#45;adapters.js&#45;&gt;../lib/graph&#45;node&#45;name.js</title>
<path fill="none" stroke="#757575" d="M831.21,-598.58C895.81,-595.33 979.14,-591.14 1038,-588.17"/>
<polygon fill="#757575" stroke="#757575" points="1038.51,-591.65 1048.33,-587.65 1038.16,-584.66 1038.51,-591.65"/>
</g>
<!-- ../lib/graph&#45;node.js -->
<g id="node8" class="node">
<title>../lib/graph&#45;node.js</title>
<path fill="none" stroke="#c6c5fe" d="M979.67,-632C979.67,-632 893.33,-632 893.33,-632 890.17,-632 887,-628.83 887,-625.67 887,-625.67 887,-619.33 887,-619.33 887,-616.17 890.17,-613 893.33,-613 893.33,-613 979.67,-613 979.67,-613 982.83,-613 986,-616.17 986,-619.33 986,-619.33 986,-625.67 986,-625.67 986,-628.83 982.83,-632 979.67,-632"/>
<text text-anchor="middle" x="936.5" y="-620" font-family="Arial" font-size="10.00" fill="#c6c5fe">../lib/graph&#45;node.js</text>
</g>
<!-- ../lib/db/mysql/mysql&#45;schema&#45;adapters.js&#45;&gt;../lib/graph&#45;node.js -->
<g id="edge3" class="edge">
<title>../lib/db/mysql/mysql&#45;schema&#45;adapters.js&#45;&gt;../lib/graph&#45;node.js</title>
<path fill="none" stroke="#757575" d="M831.25,-612.69C846.8,-614.16 862.47,-615.63 876.75,-616.97"/>
<polygon fill="#757575" stroke="#757575" points="876.61,-620.48 886.89,-617.93 877.26,-613.51 876.61,-620.48"/>
</g>
<!-- ../lib/graph&#45;node.js&#45;&gt;../lib/graph&#45;node&#45;name.js -->
<g id="edge4" class="edge">
<title>../lib/graph&#45;node.js&#45;&gt;../lib/graph&#45;node&#45;name.js</title>
<path fill="none" stroke="#757575" d="M981.28,-612.91C1004.49,-607.83 1033.18,-601.54 1057.67,-596.18"/>
<polygon fill="#757575" stroke="#757575" points="1058.51,-599.58 1067.53,-594.02 1057.02,-592.74 1058.51,-599.58"/>
</g>
<!-- ../lib/utils/capitalize&#45;snake.js -->
<g id="node10" class="node">
<title>../lib/utils/capitalize&#45;snake.js</title>
<path fill="none" stroke="#c6c5fe" d="M1175.67,-632C1175.67,-632 1048.33,-632 1048.33,-632 1045.17,-632 1042,-628.83 1042,-625.67 1042,-625.67 1042,-619.33 1042,-619.33 1042,-616.17 1045.17,-613 1048.33,-613 1048.33,-613 1175.67,-613 1175.67,-613 1178.83,-613 1182,-616.17 1182,-619.33 1182,-619.33 1182,-625.67 1182,-625.67 1182,-628.83 1178.83,-632 1175.67,-632"/>
<text text-anchor="middle" x="1112" y="-620" font-family="Arial" font-size="10.00" fill="#c6c5fe">../lib/utils/capitalize&#45;snake.js</text>
</g>
<!-- ../lib/graph&#45;node.js&#45;&gt;../lib/utils/capitalize&#45;snake.js -->
<g id="edge5" class="edge">
<title>../lib/graph&#45;node.js&#45;&gt;../lib/utils/capitalize&#45;snake.js</title>
<path fill="none" stroke="#757575" d="M986.29,-622.5C1000.43,-622.5 1016.25,-622.5 1031.75,-622.5"/>
<polygon fill="#757575" stroke="#757575" points="1031.86,-626 1041.86,-622.5 1031.86,-619 1031.86,-626"/>
</g>
<!-- ../lib/db/mysql/mysql&#45;schema&#45;reader.js -->
<g id="node9" class="node">
<title>../lib/db/mysql/mysql&#45;schema&#45;reader.js</title>
<path fill="none" stroke="#cfffac" d="M819.67,-354C819.67,-354 645.33,-354 645.33,-354 642.17,-354 639,-350.83 639,-347.67 639,-347.67 639,-341.33 639,-341.33 639,-338.17 642.17,-335 645.33,-335 645.33,-335 819.67,-335 819.67,-335 822.83,-335 826,-338.17 826,-341.33 826,-341.33 826,-347.67 826,-347.67 826,-350.83 822.83,-354 819.67,-354"/>
<text text-anchor="middle" x="732.5" y="-342" font-family="Arial" font-size="10.00" fill="#cfffac">../lib/db/mysql/mysql&#45;schema&#45;reader.js</text>
</g>
<!-- ../lib/utils/capitalize.js -->
<g id="node26" class="node">
<title>../lib/utils/capitalize.js</title>
<path fill="none" stroke="#cfffac" d="M1321.67,-632C1321.67,-632 1224.33,-632 1224.33,-632 1221.17,-632 1218,-628.83 1218,-625.67 1218,-625.67 1218,-619.33 1218,-619.33 1218,-616.17 1221.17,-613 1224.33,-613 1224.33,-613 1321.67,-613 1321.67,-613 1324.83,-613 1328,-616.17 1328,-619.33 1328,-619.33 1328,-625.67 1328,-625.67 1328,-628.83 1324.83,-632 1321.67,-632"/>
<text text-anchor="middle" x="1273" y="-620" font-family="Arial" font-size="10.00" fill="#cfffac">../lib/utils/capitalize.js</text>
</g>
<!-- ../lib/utils/capitalize&#45;snake.js&#45;&gt;../lib/utils/capitalize.js -->
<g id="edge30" class="edge">
<title>../lib/utils/capitalize&#45;snake.js&#45;&gt;../lib/utils/capitalize.js</title>
<path fill="none" stroke="#757575" d="M1182.28,-622.5C1190.73,-622.5 1199.33,-622.5 1207.7,-622.5"/>
<polygon fill="#757575" stroke="#757575" points="1207.77,-626 1217.77,-622.5 1207.77,-619 1207.77,-626"/>
</g>
<!-- ../lib/graphql&#45;common&#45;sdl&#45;types.js -->
<g id="node11" class="node">
<title>../lib/graphql&#45;common&#45;sdl&#45;types.js</title>
<path fill="none" stroke="#cfffac" d="M563.67,-278C563.67,-278 410.33,-278 410.33,-278 407.17,-278 404,-274.83 404,-271.67 404,-271.67 404,-265.33 404,-265.33 404,-262.17 407.17,-259 410.33,-259 410.33,-259 563.67,-259 563.67,-259 566.83,-259 570,-262.17 570,-265.33 570,-265.33 570,-271.67 570,-271.67 570,-274.83 566.83,-278 563.67,-278"/>
<text text-anchor="middle" x="487" y="-266" font-family="Arial" font-size="10.00" fill="#cfffac">../lib/graphql&#45;common&#45;sdl&#45;types.js</text>
</g>
<!-- ../lib/graphql&#45;input&#45;order&#45;builder.js -->
<g id="node12" class="node">
<title>../lib/graphql&#45;input&#45;order&#45;builder.js</title>
<path fill="none" stroke="#cfffac" d="M563.17,-241C563.17,-241 410.83,-241 410.83,-241 407.67,-241 404.5,-237.83 404.5,-234.67 404.5,-234.67 404.5,-228.33 404.5,-228.33 404.5,-225.17 407.67,-222 410.83,-222 410.83,-222 563.17,-222 563.17,-222 566.33,-222 569.5,-225.17 569.5,-228.33 569.5,-228.33 569.5,-234.67 569.5,-234.67 569.5,-237.83 566.33,-241 563.17,-241"/>
<text text-anchor="middle" x="487" y="-229" font-family="Arial" font-size="10.00" fill="#cfffac">../lib/graphql&#45;input&#45;order&#45;builder.js</text>
</g>
<!-- ../lib/graphql&#45;input&#45;range&#45;builder.js -->
<g id="node13" class="node">
<title>../lib/graphql&#45;input&#45;range&#45;builder.js</title>
<path fill="none" stroke="#cfffac" d="M564.67,-204C564.67,-204 409.33,-204 409.33,-204 406.17,-204 403,-200.83 403,-197.67 403,-197.67 403,-191.33 403,-191.33 403,-188.17 406.17,-185 409.33,-185 409.33,-185 564.67,-185 564.67,-185 567.83,-185 571,-188.17 571,-191.33 571,-191.33 571,-197.67 571,-197.67 571,-200.83 567.83,-204 564.67,-204"/>
<text text-anchor="middle" x="487" y="-192" font-family="Arial" font-size="10.00" fill="#cfffac">../lib/graphql&#45;input&#45;range&#45;builder.js</text>
</g>
<!-- ../lib/graphql&#45;input&#45;search&#45;builder.js -->
<g id="node14" class="node">
<title>../lib/graphql&#45;input&#45;search&#45;builder.js</title>
<path fill="none" stroke="#c6c5fe" d="M566.67,-130C566.67,-130 407.33,-130 407.33,-130 404.17,-130 401,-126.83 401,-123.67 401,-123.67 401,-117.33 401,-117.33 401,-114.17 404.17,-111 407.33,-111 407.33,-111 566.67,-111 566.67,-111 569.83,-111 573,-114.17 573,-117.33 573,-117.33 573,-123.67 573,-123.67 573,-126.83 569.83,-130 566.67,-130"/>
<text text-anchor="middle" x="487" y="-118" font-family="Arial" font-size="10.00" fill="#c6c5fe">../lib/graphql&#45;input&#45;search&#45;builder.js</text>
</g>
<!-- ../lib/graphql&#45;input&#45;search&#45;builder.js&#45;&gt;../lib/build&#45;graphql&#45;type&#45;fields.js -->
<g id="edge6" class="edge">
<title>../lib/graphql&#45;input&#45;search&#45;builder.js&#45;&gt;../lib/build&#45;graphql&#45;type&#45;fields.js</title>
<path fill="none" stroke="#757575" d="M573.16,-127.15C596.46,-128.96 621.73,-130.93 645.09,-132.76"/>
<polygon fill="#757575" stroke="#757575" points="645.08,-136.27 655.33,-133.56 645.63,-129.29 645.08,-136.27"/>
</g>
<!-- ../lib/graphql&#45;mysql&#45;schema&#45;builder.js -->
<g id="node15" class="node">
<title>../lib/graphql&#45;mysql&#45;schema&#45;builder.js</title>
<path fill="none" stroke="#c6c5fe" d="M333.67,-241C333.67,-241 164.33,-241 164.33,-241 161.17,-241 158,-237.83 158,-234.67 158,-234.67 158,-228.33 158,-228.33 158,-225.17 161.17,-222 164.33,-222 164.33,-222 333.67,-222 333.67,-222 336.83,-222 340,-225.17 340,-228.33 340,-228.33 340,-234.67 340,-234.67 340,-237.83 336.83,-241 333.67,-241"/>
<text text-anchor="middle" x="249" y="-229" font-family="Arial" font-size="10.00" fill="#c6c5fe">../lib/graphql&#45;mysql&#45;schema&#45;builder.js</text>
</g>
<!-- ../lib/graphql&#45;mysql&#45;schema&#45;builder.js&#45;&gt;../lib/db/mysql/database.js -->
<g id="edge7" class="edge">
<title>../lib/graphql&#45;mysql&#45;schema&#45;builder.js&#45;&gt;../lib/db/mysql/database.js</title>
<path fill="none" stroke="#757575" d="M328.04,-241.18C332.43,-243.73 336.48,-246.8 340,-250.5 409.54,-323.51 309.1,-399.05 376,-474.5 446.07,-553.52 574.33,-568.8 656.12,-569.74"/>
<polygon fill="#757575" stroke="#757575" points="656.33,-573.24 666.35,-569.78 656.36,-566.24 656.33,-573.24"/>
</g>
<!-- ../lib/graphql&#45;mysql&#45;schema&#45;builder.js&#45;&gt;../lib/node&#45;edge&#45;inspector.js -->
<g id="edge15" class="edge">
<title>../lib/graphql&#45;mysql&#45;schema&#45;builder.js&#45;&gt;../lib/node&#45;edge&#45;inspector.js</title>
<path fill="none" stroke="#757575" d="M317.46,-241.12C325.31,-243.57 333.01,-246.65 340,-250.5 360.1,-261.57 355.26,-277.68 376,-287.5 559.43,-374.37 648.09,-238.53 831,-326.5 873.52,-346.95 907.7,-392.63 924.39,-418.23"/>
<polygon fill="#757575" stroke="#757575" points="921.61,-420.38 929.91,-426.96 927.53,-416.64 921.61,-420.38"/>
</g>
<!-- ../lib/graphql&#45;mysql&#45;schema&#45;builder.js&#45;&gt;../lib/db/mysql/mysql&#45;schema&#45;adapters.js -->
<g id="edge8" class="edge">
<title>../lib/graphql&#45;mysql&#45;schema&#45;builder.js&#45;&gt;../lib/db/mysql/mysql&#45;schema&#45;adapters.js</title>
<path fill="none" stroke="#757575" d="M328.18,-241.05C332.53,-243.63 336.54,-246.74 340,-250.5 425.93,-343.73 289.65,-440.66 376,-533.5 438.04,-600.2 543.64,-613.84 623.67,-613.1"/>
<polygon fill="#757575" stroke="#757575" points="623.85,-616.6 633.79,-612.93 623.73,-609.6 623.85,-616.6"/>
</g>
<!-- ../lib/graphql&#45;mysql&#45;schema&#45;builder.js&#45;&gt;../lib/db/mysql/mysql&#45;schema&#45;reader.js -->
<g id="edge9" class="edge">
<title>../lib/graphql&#45;mysql&#45;schema&#45;builder.js&#45;&gt;../lib/db/mysql/mysql&#45;schema&#45;reader.js</title>
<path fill="none" stroke="#757575" d="M323.7,-241.17C329.52,-243.65 335.05,-246.72 340,-250.5 367.81,-271.73 346.77,-301.28 376,-320.5 468.44,-381.27 605.22,-368.85 679.27,-355.84"/>
<polygon fill="#757575" stroke="#757575" points="680.09,-359.25 689.29,-354 678.83,-352.36 680.09,-359.25"/>
</g>
<!-- ../lib/graphql&#45;mysql&#45;schema&#45;builder.js&#45;&gt;../lib/graphql&#45;common&#45;sdl&#45;types.js -->
<g id="edge10" class="edge">
<title>../lib/graphql&#45;mysql&#45;schema&#45;builder.js&#45;&gt;../lib/graphql&#45;common&#45;sdl&#45;types.js</title>
<path fill="none" stroke="#757575" d="M310.78,-241.03C342.58,-246.02 381.71,-252.15 414.92,-257.36"/>
<polygon fill="#757575" stroke="#757575" points="414.6,-260.85 425.02,-258.94 415.68,-253.93 414.6,-260.85"/>
</g>
<!-- ../lib/graphql&#45;mysql&#45;schema&#45;builder.js&#45;&gt;../lib/graphql&#45;input&#45;order&#45;builder.js -->
<g id="edge11" class="edge">
<title>../lib/graphql&#45;mysql&#45;schema&#45;builder.js&#45;&gt;../lib/graphql&#45;input&#45;order&#45;builder.js</title>
<path fill="none" stroke="#757575" d="M340.23,-231.5C357.85,-231.5 376.35,-231.5 394.03,-231.5"/>
<polygon fill="#757575" stroke="#757575" points="394.33,-235 404.33,-231.5 394.33,-228 394.33,-235"/>
</g>
<!-- ../lib/graphql&#45;mysql&#45;schema&#45;builder.js&#45;&gt;../lib/graphql&#45;input&#45;range&#45;builder.js -->
<g id="edge12" class="edge">
<title>../lib/graphql&#45;mysql&#45;schema&#45;builder.js&#45;&gt;../lib/graphql&#45;input&#45;range&#45;builder.js</title>
<path fill="none" stroke="#757575" d="M310.78,-221.97C342.58,-216.98 381.71,-210.85 414.92,-205.64"/>
<polygon fill="#757575" stroke="#757575" points="415.68,-209.07 425.02,-204.06 414.6,-202.15 415.68,-209.07"/>
</g>
<!-- ../lib/graphql&#45;mysql&#45;schema&#45;builder.js&#45;&gt;../lib/graphql&#45;input&#45;search&#45;builder.js -->
<g id="edge13" class="edge">
<title>../lib/graphql&#45;mysql&#45;schema&#45;builder.js&#45;&gt;../lib/graphql&#45;input&#45;search&#45;builder.js</title>
<path fill="none" stroke="#757575" d="M259.43,-221.98C279.12,-202.72 326.9,-159.2 376,-138.5 381.07,-136.36 386.37,-134.48 391.79,-132.81"/>
<polygon fill="#757575" stroke="#757575" points="392.96,-136.12 401.65,-130.06 391.07,-129.38 392.96,-136.12"/>
</g>
<!-- ../lib/graphql&#45;type&#45;builder.js -->
<g id="node16" class="node">
<title>../lib/graphql&#45;type&#45;builder.js</title>
<path fill="none" stroke="#c6c5fe" d="M548.67,-167C548.67,-167 425.33,-167 425.33,-167 422.17,-167 419,-163.83 419,-160.67 419,-160.67 419,-154.33 419,-154.33 419,-151.17 422.17,-148 425.33,-148 425.33,-148 548.67,-148 548.67,-148 551.83,-148 555,-151.17 555,-154.33 555,-154.33 555,-160.67 555,-160.67 555,-163.83 551.83,-167 548.67,-167"/>
<text text-anchor="middle" x="487" y="-155" font-family="Arial" font-size="10.00" fill="#c6c5fe">../lib/graphql&#45;type&#45;builder.js</text>
</g>
<!-- ../lib/graphql&#45;mysql&#45;schema&#45;builder.js&#45;&gt;../lib/graphql&#45;type&#45;builder.js -->
<g id="edge14" class="edge">
<title>../lib/graphql&#45;mysql&#45;schema&#45;builder.js&#45;&gt;../lib/graphql&#45;type&#45;builder.js</title>
<path fill="none" stroke="#757575" d="M267.8,-221.83C291.72,-209.25 335.86,-187.49 376,-175.5 386.43,-172.38 397.6,-169.77 408.66,-167.58"/>
<polygon fill="#757575" stroke="#757575" points="409.59,-170.97 418.77,-165.7 408.3,-164.09 409.59,-170.97"/>
</g>
<!-- ../lib/resolvers/graphql&#45;mysql&#45;resolve&#45;builder.js -->
<g id="node17" class="node">
<title>../lib/resolvers/graphql&#45;mysql&#45;resolve&#45;builder.js</title>
<path fill="none" stroke="#c6c5fe" d="M591.67,-465C591.67,-465 382.33,-465 382.33,-465 379.17,-465 376,-461.83 376,-458.67 376,-458.67 376,-452.33 376,-452.33 376,-449.17 379.17,-446 382.33,-446 382.33,-446 591.67,-446 591.67,-446 594.83,-446 598,-449.17 598,-452.33 598,-452.33 598,-458.67 598,-458.67 598,-461.83 594.83,-465 591.67,-465"/>
<text text-anchor="middle" x="487" y="-453" font-family="Arial" font-size="10.00" fill="#c6c5fe">../lib/resolvers/graphql&#45;mysql&#45;resolve&#45;builder.js</text>
</g>
<!-- ../lib/graphql&#45;mysql&#45;schema&#45;builder.js&#45;&gt;../lib/resolvers/graphql&#45;mysql&#45;resolve&#45;builder.js -->
<g id="edge16" class="edge">
<title>../lib/graphql&#45;mysql&#45;schema&#45;builder.js&#45;&gt;../lib/resolvers/graphql&#45;mysql&#45;resolve&#45;builder.js</title>
<path fill="none" stroke="#757575" d="M326.09,-241.21C331.12,-243.72 335.83,-246.78 340,-250.5 377.75,-284.19 348.06,-316.32 376,-358.5 398.91,-393.1 437.24,-422.96 462.06,-440.09"/>
<polygon fill="#757575" stroke="#757575" points="460.3,-443.12 470.54,-445.81 464.21,-437.32 460.3,-443.12"/>
</g>
<!-- ../lib/utils/db&#45;to&#45;graphql&#45;types&#45;map.js -->
<g id="node18" class="node">
<title>../lib/utils/db&#45;to&#45;graphql&#45;types&#45;map.js</title>
<path fill="none" stroke="#cfffac" d="M569.67,-93C569.67,-93 404.33,-93 404.33,-93 401.17,-93 398,-89.83 398,-86.67 398,-86.67 398,-80.33 398,-80.33 398,-77.17 401.17,-74 404.33,-74 404.33,-74 569.67,-74 569.67,-74 572.83,-74 576,-77.17 576,-80.33 576,-80.33 576,-86.67 576,-86.67 576,-89.83 572.83,-93 569.67,-93"/>
<text text-anchor="middle" x="487" y="-81" font-family="Arial" font-size="10.00" fill="#cfffac">../lib/utils/db&#45;to&#45;graphql&#45;types&#45;map.js</text>
</g>
<!-- ../lib/graphql&#45;mysql&#45;schema&#45;builder.js&#45;&gt;../lib/utils/db&#45;to&#45;graphql&#45;types&#45;map.js -->
<g id="edge17" class="edge">
<title>../lib/graphql&#45;mysql&#45;schema&#45;builder.js&#45;&gt;../lib/utils/db&#45;to&#45;graphql&#45;types&#45;map.js</title>
<path fill="none" stroke="#757575" d="M255.98,-221.99C272,-197.39 318.62,-131.49 376,-101.5 379.97,-99.43 384.11,-97.58 388.38,-95.94"/>
<polygon fill="#757575" stroke="#757575" points="389.56,-99.23 397.87,-92.66 387.27,-92.62 389.56,-99.23"/>
</g>
<!-- ../lib/utils/resolvers&#45;object&#45;builder.js -->
<g id="node19" class="node">
<title>../lib/utils/resolvers&#45;object&#45;builder.js</title>
<path fill="none" stroke="#cfffac" d="M566.67,-56C566.67,-56 407.33,-56 407.33,-56 404.17,-56 401,-52.83 401,-49.67 401,-49.67 401,-43.33 401,-43.33 401,-40.17 404.17,-37 407.33,-37 407.33,-37 566.67,-37 566.67,-37 569.83,-37 573,-40.17 573,-43.33 573,-43.33 573,-49.67 573,-49.67 573,-52.83 569.83,-56 566.67,-56"/>
<text text-anchor="middle" x="487" y="-44" font-family="Arial" font-size="10.00" fill="#cfffac">../lib/utils/resolvers&#45;object&#45;builder.js</text>
</g>
<!-- ../lib/graphql&#45;mysql&#45;schema&#45;builder.js&#45;&gt;../lib/utils/resolvers&#45;object&#45;builder.js -->
<g id="edge18" class="edge">
<title>../lib/graphql&#45;mysql&#45;schema&#45;builder.js&#45;&gt;../lib/utils/resolvers&#45;object&#45;builder.js</title>
<path fill="none" stroke="#757575" d="M254.05,-221.92C266.93,-192.71 310.09,-104.31 376,-64.5 380.76,-61.62 385.84,-59.17 391.11,-57.07"/>
<polygon fill="#757575" stroke="#757575" points="392.49,-60.3 400.76,-53.68 390.17,-53.69 392.49,-60.3"/>
</g>
<!-- ../lib/utils/tap.js -->
<g id="node20" class="node">
<title>../lib/utils/tap.js</title>
<path fill="none" stroke="#cfffac" d="M521.67,-19C521.67,-19 452.33,-19 452.33,-19 449.17,-19 446,-15.83 446,-12.67 446,-12.67 446,-6.33 446,-6.33 446,-3.17 449.17,0 452.33,0 452.33,0 521.67,0 521.67,0 524.83,0 528,-3.17 528,-6.33 528,-6.33 528,-12.67 528,-12.67 528,-15.83 524.83,-19 521.67,-19"/>
<text text-anchor="middle" x="487" y="-7" font-family="Arial" font-size="10.00" fill="#cfffac">../lib/utils/tap.js</text>
</g>
<!-- ../lib/graphql&#45;mysql&#45;schema&#45;builder.js&#45;&gt;../lib/utils/tap.js -->
<g id="edge19" class="edge">
<title>../lib/graphql&#45;mysql&#45;schema&#45;builder.js&#45;&gt;../lib/utils/tap.js</title>
<path fill="none" stroke="#757575" d="M252.79,-221.78C262.95,-188.36 301.28,-77.51 376,-27.5 393.39,-15.86 415.72,-10.84 435.71,-8.93"/>
<polygon fill="#757575" stroke="#757575" points="436.19,-12.4 445.91,-8.19 435.69,-5.42 436.19,-12.4"/>
</g>
<!-- ../lib/graphql&#45;type&#45;builder.js&#45;&gt;../lib/build&#45;graphql&#45;type&#45;fields.js -->
<g id="edge20" class="edge">
<title>../lib/graphql&#45;type&#45;builder.js&#45;&gt;../lib/build&#45;graphql&#45;type&#45;fields.js</title>
<path fill="none" stroke="#757575" d="M555.18,-152.53C582.89,-150.49 615.34,-148.09 644.8,-145.91"/>
<polygon fill="#757575" stroke="#757575" points="645.37,-149.38 655.09,-145.15 644.86,-142.4 645.37,-149.38"/>
</g>
<!-- ../lib/resolvers/graphql&#45;mysql&#45;resolve&#45;builder.js&#45;&gt;../lib/db/mysql/database.js -->
<g id="edge22" class="edge">
<title>../lib/resolvers/graphql&#45;mysql&#45;resolve&#45;builder.js&#45;&gt;../lib/db/mysql/database.js</title>
<path fill="none" stroke="#757575" d="M529.35,-465C551.34,-471.53 577.9,-481.89 598,-497.5 619.91,-514.52 610.63,-533.54 634,-548.5 640.91,-552.92 648.62,-556.32 656.6,-558.92"/>
<polygon fill="#757575" stroke="#757575" points="655.85,-562.35 666.42,-561.72 657.76,-555.62 655.85,-562.35"/>
</g>
<!-- ../lib/resolvers/graphql&#45;mysql&#45;resolve&#45;builder.js&#45;&gt;../lib/db/mysql/mysql&#45;model&#45;builder.js -->
<g id="edge23" class="edge">
<title>../lib/resolvers/graphql&#45;mysql&#45;resolve&#45;builder.js&#45;&gt;../lib/db/mysql/mysql&#45;model&#45;builder.js</title>
<path fill="none" stroke="#757575" d="M513.36,-465.13C535.66,-473.62 569.01,-486.33 598,-497.5 614.02,-503.67 617.49,-506.81 634,-511.5 642.36,-513.87 651.22,-516.01 660.05,-517.92"/>
<polygon fill="#757575" stroke="#757575" points="659.48,-521.37 669.98,-519.96 660.89,-514.52 659.48,-521.37"/>
</g>
<!-- ../lib/resolvers/graphql&#45;mysql&#45;resolve&#45;builder.js&#45;&gt;../lib/db/mysql/mysql&#45;schema&#45;adapters.js -->
<g id="edge24" class="edge">
<title>../lib/resolvers/graphql&#45;mysql&#45;resolve&#45;builder.js&#45;&gt;../lib/db/mysql/mysql&#45;schema&#45;adapters.js</title>
<path fill="none" stroke="#757575" d="M495.63,-465.28C515.48,-489.95 571.5,-554.92 634,-585.5 638.07,-587.49 642.33,-589.26 646.7,-590.84"/>
<polygon fill="#757575" stroke="#757575" points="645.82,-594.23 656.41,-593.99 647.98,-587.57 645.82,-594.23"/>
</g>
<!-- ../lib/resolvers/graphql&#45;mysql&#45;resolve&#45;builder.js&#45;&gt;../lib/db/mysql/mysql&#45;schema&#45;reader.js -->
<g id="edge25" class="edge">
<title>../lib/resolvers/graphql&#45;mysql&#45;resolve&#45;builder.js&#45;&gt;../lib/db/mysql/mysql&#45;schema&#45;reader.js</title>
<path fill="none" stroke="#757575" d="M499.67,-445.99C523.41,-427.14 579.69,-385.03 634,-363.5 640.72,-360.84 647.86,-358.53 655.1,-356.55"/>
<polygon fill="#757575" stroke="#757575" points="656.16,-359.89 664.99,-354.03 654.44,-353.1 656.16,-359.89"/>
</g>
<!-- ../lib/utils/config&#45;reader.js -->
<g id="node22" class="node">
<title>../lib/utils/config&#45;reader.js</title>
<path fill="none" stroke="#cfffac" d="M789.67,-465C789.67,-465 675.33,-465 675.33,-465 672.17,-465 669,-461.83 669,-458.67 669,-458.67 669,-452.33 669,-452.33 669,-449.17 672.17,-446 675.33,-446 675.33,-446 789.67,-446 789.67,-446 792.83,-446 796,-449.17 796,-452.33 796,-452.33 796,-458.67 796,-458.67 796,-461.83 792.83,-465 789.67,-465"/>
<text text-anchor="middle" x="732.5" y="-453" font-family="Arial" font-size="10.00" fill="#cfffac">../lib/utils/config&#45;reader.js</text>
</g>
<!-- ../lib/resolvers/graphql&#45;mysql&#45;resolve&#45;builder.js&#45;&gt;../lib/utils/config&#45;reader.js -->
<g id="edge26" class="edge">
<title>../lib/resolvers/graphql&#45;mysql&#45;resolve&#45;builder.js&#45;&gt;../lib/utils/config&#45;reader.js</title>
<path fill="none" stroke="#757575" d="M598.35,-455.5C618.83,-455.5 639.74,-455.5 658.75,-455.5"/>
<polygon fill="#757575" stroke="#757575" points="658.79,-459 668.79,-455.5 658.79,-452 658.79,-459"/>
</g>
<!-- ../lib/utils/deconstruct&#45;resolve&#45;args.js -->
<g id="node23" class="node">
<title>../lib/utils/deconstruct&#45;resolve&#45;args.js</title>
<path fill="none" stroke="#cfffac" d="M815.17,-428C815.17,-428 649.83,-428 649.83,-428 646.67,-428 643.5,-424.83 643.5,-421.67 643.5,-421.67 643.5,-415.33 643.5,-415.33 643.5,-412.17 646.67,-409 649.83,-409 649.83,-409 815.17,-409 815.17,-409 818.33,-409 821.5,-412.17 821.5,-415.33 821.5,-415.33 821.5,-421.67 821.5,-421.67 821.5,-424.83 818.33,-428 815.17,-428"/>
<text text-anchor="middle" x="732.5" y="-416" font-family="Arial" font-size="10.00" fill="#cfffac">../lib/utils/deconstruct&#45;resolve&#45;args.js</text>
</g>
<!-- ../lib/resolvers/graphql&#45;mysql&#45;resolve&#45;builder.js&#45;&gt;../lib/utils/deconstruct&#45;resolve&#45;args.js -->
<g id="edge27" class="edge">
<title>../lib/resolvers/graphql&#45;mysql&#45;resolve&#45;builder.js&#45;&gt;../lib/utils/deconstruct&#45;resolve&#45;args.js</title>
<path fill="none" stroke="#757575" d="M550.71,-445.97C583.67,-440.96 624.25,-434.8 658.6,-429.58"/>
<polygon fill="#757575" stroke="#757575" points="659.22,-433.02 668.58,-428.06 658.17,-426.1 659.22,-433.02"/>
</g>
<!-- ../lib/utils/js&#45;data&#45;type.js -->
<g id="node24" class="node">
<title>../lib/utils/js&#45;data&#45;type.js</title>
<path fill="none" stroke="#cfffac" d="M786.17,-391C786.17,-391 678.83,-391 678.83,-391 675.67,-391 672.5,-387.83 672.5,-384.67 672.5,-384.67 672.5,-378.33 672.5,-378.33 672.5,-375.17 675.67,-372 678.83,-372 678.83,-372 786.17,-372 786.17,-372 789.33,-372 792.5,-375.17 792.5,-378.33 792.5,-378.33 792.5,-384.67 792.5,-384.67 792.5,-387.83 789.33,-391 786.17,-391"/>
<text text-anchor="middle" x="732.5" y="-379" font-family="Arial" font-size="10.00" fill="#cfffac">../lib/utils/js&#45;data&#45;type.js</text>
</g>
<!-- ../lib/resolvers/graphql&#45;mysql&#45;resolve&#45;builder.js&#45;&gt;../lib/utils/js&#45;data&#45;type.js -->
<g id="edge28" class="edge">
<title>../lib/resolvers/graphql&#45;mysql&#45;resolve&#45;builder.js&#45;&gt;../lib/utils/js&#45;data&#45;type.js</title>
<path fill="none" stroke="#757575" d="M509.87,-445.94C538.09,-433.91 588.92,-413.29 634,-400.5 643.64,-397.76 653.93,-395.29 664.08,-393.1"/>
<polygon fill="#757575" stroke="#757575" points="665.07,-396.47 674.15,-391.01 663.65,-389.62 665.07,-396.47"/>
</g>
<!-- ../lib/utils/mysql&#45;range&#45;comparator.js -->
<g id="node25" class="node">
<title>../lib/utils/mysql&#45;range&#45;comparator.js</title>
<path fill="none" stroke="#cfffac" d="M814.67,-502C814.67,-502 650.33,-502 650.33,-502 647.17,-502 644,-498.83 644,-495.67 644,-495.67 644,-489.33 644,-489.33 644,-486.17 647.17,-483 650.33,-483 650.33,-483 814.67,-483 814.67,-483 817.83,-483 821,-486.17 821,-489.33 821,-489.33 821,-495.67 821,-495.67 821,-498.83 817.83,-502 814.67,-502"/>
<text text-anchor="middle" x="732.5" y="-490" font-family="Arial" font-size="10.00" fill="#cfffac">../lib/utils/mysql&#45;range&#45;comparator.js</text>
</g>
<!-- ../lib/resolvers/graphql&#45;mysql&#45;resolve&#45;builder.js&#45;&gt;../lib/utils/mysql&#45;range&#45;comparator.js -->
<g id="edge29" class="edge">
<title>../lib/resolvers/graphql&#45;mysql&#45;resolve&#45;builder.js&#45;&gt;../lib/utils/mysql&#45;range&#45;comparator.js</title>
<path fill="none" stroke="#757575" d="M550.71,-465.03C583.67,-470.04 624.25,-476.2 658.6,-481.42"/>
<polygon fill="#757575" stroke="#757575" points="658.17,-484.9 668.58,-482.94 659.22,-477.98 658.17,-484.9"/>
</g>
<!-- mysql&#45;schema&#45;server.js -->
<g id="node27" class="node">
<title>mysql&#45;schema&#45;server.js</title>
<path fill="none" stroke="#c6c5fe" d="M115.67,-259C115.67,-259 6.33,-259 6.33,-259 3.17,-259 0,-255.83 0,-252.67 0,-252.67 0,-246.33 0,-246.33 0,-243.17 3.17,-240 6.33,-240 6.33,-240 115.67,-240 115.67,-240 118.83,-240 122,-243.17 122,-246.33 122,-246.33 122,-252.67 122,-252.67 122,-255.83 118.83,-259 115.67,-259"/>
<text text-anchor="middle" x="61" y="-247" font-family="Arial" font-size="10.00" fill="#c6c5fe">mysql&#45;schema&#45;server.js</text>
</g>
<!-- mysql&#45;schema&#45;server.js&#45;&gt;../knexfile.js -->
<g id="edge31" class="edge">
<title>mysql&#45;schema&#45;server.js&#45;&gt;../knexfile.js</title>
<path fill="none" stroke="#757575" d="M122.13,-255.64C148.88,-258.37 179.79,-261.53 204.28,-264.03"/>
<polygon fill="#757575" stroke="#757575" points="204.05,-267.53 214.36,-265.06 204.76,-260.57 204.05,-267.53"/>
</g>
<!-- mysql&#45;schema&#45;server.js&#45;&gt;../lib/graphql&#45;mysql&#45;schema&#45;builder.js -->
<g id="edge32" class="edge">
<title>mysql&#45;schema&#45;server.js&#45;&gt;../lib/graphql&#45;mysql&#45;schema&#45;builder.js</title>
<path fill="none" stroke="#757575" d="M122.13,-243.68C130.46,-242.87 139.19,-242.03 148.01,-241.18"/>
<polygon fill="#757575" stroke="#757575" points="148.37,-244.66 157.98,-240.21 147.69,-237.69 148.37,-244.66"/>
</g>
</g>
</svg>
